<?xml version="1.0" encoding="UTF-8"?>
<svg xmlns="http://www.w3.org/2000/svg" viewBox="0 0 800 600">
  <rect width="800" height="600" fill="#0b0f14"/>
  <text x="400" y="25" text-anchor="middle" fill="#e94560" font-family="Arial" font-size="16" font-weight="bold">2D Module Map</text>

  <!-- Connection lines -->
  <g stroke="rgba(207,216,220,0.25)" stroke-width="0.5">
    <line x1="511.3" y1="311.5" x2="479.9" y2="294.5"/>
    <line x1="511.3" y1="311.5" x2="61.2" y2="205.9"/>
    <line x1="459.9" y1="320.5" x2="479.9" y2="294.5"/>
    <line x1="479.9" y1="294.5" x2="623.9" y2="234.5"/>
    <line x1="61.2" y1="205.9" x2="623.9" y2="234.5"/>
    <line x1="61.2" y1="205.9" x2="267.0" y2="467.2"/>
    <line x1="623.9" y1="234.5" x2="267.0" y2="467.2"/>
    <line x1="623.9" y1="234.5" x2="83.4" y2="151.2"/>
    <line x1="267.0" y1="467.2" x2="687.9" y2="266.1"/>
    <line x1="83.4" y1="151.2" x2="322.4" y2="467.1"/>
    <line x1="687.9" y1="266.1" x2="349.9" y2="411.2"/>
    <line x1="322.4" y1="467.1" x2="112.6" y2="94.5"/>
    <line x1="383.0" y1="372.6" x2="349.9" y2="411.2"/>
    <line x1="640.3" y1="241.5" x2="282.6" y2="471.1"/>
    <line x1="121.9" y1="165.6" x2="126.0" y2="62.2"/>
    <line x1="121.9" y1="165.6" x2="282.6" y2="471.1"/>
    <line x1="121.9" y1="165.6" x2="66.8" y2="239.2"/>
    <line x1="126.0" y1="62.2" x2="282.6" y2="471.1"/>
    <line x1="126.0" y1="62.2" x2="66.8" y2="239.2"/>
    <line x1="126.0" y1="62.2" x2="54.4" y2="137.0"/>
    <line x1="66.8" y1="239.2" x2="54.4" y2="137.0"/>
    <line x1="66.8" y1="239.2" x2="87.7" y2="210.9"/>
    <line x1="54.4" y1="137.0" x2="681.8" y2="208.3"/>
    <line x1="87.7" y1="210.9" x2="681.8" y2="208.3"/>
    <line x1="720.9" y1="314.3" x2="271.1" y2="560.0"/>
    <line x1="720.9" y1="314.3" x2="151.6" y2="40.0"/>
    <line x1="271.1" y1="560.0" x2="151.6" y2="40.0"/>
    <line x1="271.1" y1="560.0" x2="645.6" y2="220.6"/>
    <line x1="260.0" y1="471.1" x2="644.9" y2="314.2"/>
    <line x1="260.0" y1="471.1" x2="91.3" y2="136.9"/>
    <line x1="644.9" y1="314.2" x2="91.3" y2="136.9"/>
    <line x1="91.3" y1="136.9" x2="739.4" y2="291.0"/>
    <line x1="639.3" y1="402.1" x2="704.5" y2="256.6"/>
    <line x1="639.3" y1="402.1" x2="334.3" y2="449.5"/>
    <line x1="739.4" y1="291.0" x2="704.5" y2="256.6"/>
    <line x1="704.5" y1="256.6" x2="721.8" y2="246.2"/>
    <line x1="721.8" y1="246.2" x2="374.4" y2="424.0"/>
    <line x1="399.7" y1="347.8" x2="290.0" y2="532.2"/>
    <line x1="374.4" y1="424.0" x2="290.0" y2="532.2"/>
    <line x1="290.0" y1="532.2" x2="616.2" y2="208.1"/>
    <line x1="290.0" y1="532.2" x2="708.5" y2="354.9"/>
    <line x1="616.2" y1="208.1" x2="111.8" y2="186.9"/>
    <line x1="745.6" y1="299.2" x2="112.7" y2="47.6"/>
    <line x1="111.8" y1="186.9" x2="310.7" y2="495.8"/>
    <line x1="112.7" y1="47.6" x2="310.7" y2="495.8"/>
    <line x1="310.7" y1="495.8" x2="40.0" y2="129.7"/>
    <line x1="760.0" y1="316.8" x2="283.6" y2="549.2"/>
    <line x1="77.3" y1="258.4" x2="283.6" y2="549.2"/>
    <line x1="40.0" y1="129.7" x2="548.4" y2="204.1"/>
    <line x1="283.6" y1="549.2" x2="566.8" y2="218.8"/>
    <line x1="548.4" y1="204.1" x2="415.3" y2="311.0"/>
  </g>

  <!-- Module points -->
  <circle cx="511.3" cy="311.5" r="8.8" fill="#6c5ce7" opacity="0.92"/>
  <circle cx="459.9" cy="320.5" r="12.0" fill="#e17055" opacity="0.79"/>
  <circle cx="479.9" cy="294.5" r="9.8" fill="#e17055" opacity="0.89"/>
  <circle cx="61.2" cy="205.9" r="8.5" fill="#00b894" opacity="0.86"/>
  <circle cx="623.9" cy="234.5" r="9.4" fill="#e17055" opacity="0.77"/>
  <circle cx="267.0" cy="467.2" r="8.9" fill="#00b894" opacity="0.88"/>
  <circle cx="83.4" cy="151.2" r="8.3" fill="#00b894" opacity="0.77"/>
  <circle cx="687.9" cy="266.1" r="8.9" fill="#6c5ce7" opacity="0.89"/>
  <circle cx="322.4" cy="467.1" r="11.4" fill="#00b894" opacity="0.97"/>
  <circle cx="383.0" cy="372.6" r="9.0" fill="#00b894" opacity="0.72"/>
  <circle cx="349.9" cy="411.2" r="8.9" fill="#00b894" opacity="0.90"/>
  <circle cx="112.6" cy="94.5" r="11.7" fill="#00b894" opacity="0.74"/>
  <circle cx="286.2" cy="526.3" r="9.9" fill="#00b894" opacity="0.87"/>
  <circle cx="640.3" cy="241.5" r="11.2" fill="#e17055" opacity="0.94"/>
  <circle cx="121.9" cy="165.6" r="8.4" fill="#00b894" opacity="0.76"/>
  <circle cx="126.0" cy="62.2" r="9.7" fill="#6c5ce7" opacity="0.83"/>
  <circle cx="282.6" cy="471.1" r="10.9" fill="#00b894" opacity="0.84"/>
  <circle cx="66.8" cy="239.2" r="11.9" fill="#00b894" opacity="0.90"/>
  <circle cx="54.4" cy="137.0" r="9.6" fill="#6c5ce7" opacity="0.73"/>
  <circle cx="87.7" cy="210.9" r="11.4" fill="#00b894" opacity="0.80"/>
  <circle cx="681.0" cy="351.8" r="8.8" fill="#0984e3" opacity="0.77"/>
  <circle cx="681.8" cy="208.3" r="9.7" fill="#a0a0a0" opacity="0.83"/>
  <circle cx="720.9" cy="314.3" r="9.0" fill="#0984e3" opacity="0.78"/>
  <circle cx="271.1" cy="560.0" r="9.8" fill="#a0a0a0" opacity="0.98"/>
  <circle cx="151.6" cy="40.0" r="10.2" fill="#a0a0a0" opacity="0.96"/>
  <circle cx="645.6" cy="220.6" r="12.0" fill="#e17055" opacity="0.72"/>
  <circle cx="260.0" cy="471.1" r="11.9" fill="#00b894" opacity="0.95"/>
  <circle cx="644.9" cy="314.2" r="11.4" fill="#0984e3" opacity="0.98"/>
  <circle cx="91.3" cy="136.9" r="9.9" fill="#00b894" opacity="0.75"/>
  <circle cx="639.3" cy="402.1" r="9.6" fill="#0984e3" opacity="0.76"/>
  <circle cx="739.4" cy="291.0" r="9.5" fill="#0984e3" opacity="0.72"/>
  <circle cx="704.5" cy="256.6" r="9.1" fill="#6c5ce7" opacity="1.00"/>
  <circle cx="334.3" cy="449.5" r="9.8" fill="#00b894" opacity="0.94"/>
  <circle cx="721.8" cy="246.2" r="11.8" fill="#0984e3" opacity="0.83"/>
  <circle cx="399.7" cy="347.8" r="10.2" fill="#00b894" opacity="1.00"/>
  <circle cx="374.4" cy="424.0" r="8.6" fill="#00b894" opacity="0.92"/>
  <circle cx="90.0" cy="73.9" r="11.9" fill="#00b894" opacity="0.79"/>
  <circle cx="290.0" cy="532.2" r="10.2" fill="#00b894" opacity="0.87"/>
  <circle cx="616.2" cy="208.1" r="8.2" fill="#e17055" opacity="0.92"/>
  <circle cx="745.6" cy="299.2" r="10.0" fill="#a0a0a0" opacity="0.88"/>
  <circle cx="708.5" cy="354.9" r="8.6" fill="#0984e3" opacity="0.96"/>
  <circle cx="111.8" cy="186.9" r="8.3" fill="#00b894" opacity="0.99"/>
  <circle cx="112.7" cy="47.6" r="10.4" fill="#6c5ce7" opacity="0.76"/>
  <circle cx="310.7" cy="495.8" r="8.9" fill="#00b894" opacity="0.90"/>
  <circle cx="760.0" cy="316.8" r="11.6" fill="#0984e3" opacity="0.74"/>
  <circle cx="77.3" cy="258.4" r="10.4" fill="#00b894" opacity="0.77"/>
  <circle cx="40.0" cy="129.7" r="9.7" fill="#6c5ce7" opacity="0.89"/>
  <circle cx="283.6" cy="549.2" r="10.1" fill="#0984e3" opacity="0.88"/>
  <circle cx="548.4" cy="204.1" r="8.8" fill="#fd79a8" opacity="0.98"/>
  <circle cx="566.8" cy="218.8" r="9.0" fill="#fd79a8" opacity="0.91"/>
  <circle cx="415.3" cy="311.0" r="10.7" fill="#636e72" opacity="0.82"/>

  <!-- Legend -->
  <g transform="translate(20, 500)">
    <rect x="0" y="0" width="12" height="12" fill="#6c5ce7"/><text x="18" y="10" fill="#a0a0a0" font-size="9">DataPlane</text>
    <rect x="0" y="18" width="12" height="12" fill="#00b894"/><text x="18" y="28" fill="#a0a0a0" font-size="9">NativeKernel</text>
    <rect x="100" y="0" width="12" height="12" fill="#e17055"/><text x="118" y="10" fill="#a0a0a0" font-size="9">ComputationPlane</text>
    <rect x="100" y="18" width="12" height="12" fill="#e94560"/><text x="118" y="28" fill="#a0a0a0" font-size="9">FullKernel</text>
    <rect x="230" y="0" width="12" height="12" fill="#0984e3"/><text x="248" y="10" fill="#a0a0a0" font-size="9">Combinators</text>
    <rect x="230" y="18" width="12" height="12" fill="#fd79a8"/><text x="248" y="28" fill="#a0a0a0" font-size="9">Foundation</text>
  </g>

  <text x="400" y="585" text-anchor="middle" fill="#60a5fa" font-family="Arial" font-size="10">Click to open interactive view</text>
</svg>