<?xml version="1.0" encoding="utf-8"?>
<svg xmlns="http://www.w3.org/2000/svg" width="1500" height="900" viewBox="0 0 1500 900" role="img" aria-label="UMAP preview">
<rect x="0" y="0" width="1500" height="900" fill="#0b0f14"/>
<text x="50" y="32" fill="#ffffff" font-size="20" font-family="ui-sans-serif,system-ui,Segoe UI,Roboto,Helvetica,Arial">UMAP 3D — LoF/Kernel proof/declaration map</text>
<text x="50" y="48" fill="#b8c7d9" font-size="12" font-family="ui-sans-serif,system-ui,Segoe UI,Roboto,Helvetica,Arial">Points: declarations • Colors: module family • Edges: kNN similarity links (source-text features)</text>
<rect x="50" y="50" width="1090" height="800" fill="#0f1721" stroke="#1c2a3a" stroke-width="1"/>
<line x1="672.43" y1="360.15" x2="726.06" y2="334.39" stroke="#3b4b5d" stroke-opacity="0.18" stroke-width="1"/>
<line x1="672.43" y1="360.15" x2="763.78" y2="326.95" stroke="#3b4b5d" stroke-opacity="0.18" stroke-width="1"/>
<line x1="672.43" y1="360.15" x2="452.89" y2="436.98" stroke="#3b4b5d" stroke-opacity="0.18" stroke-width="1"/>
<line x1="672.43" y1="360.15" x2="397.18" y2="391.89" stroke="#3b4b5d" stroke-opacity="0.18" stroke-width="1"/>
<line x1="672.43" y1="360.15" x2="560.55" y2="402.81" stroke="#3b4b5d" stroke-opacity="0.18" stroke-width="1"/>
<line x1="763.78" y1="326.95" x2="726.06" y2="334.39" stroke="#3b4b5d" stroke-opacity="0.18" stroke-width="1"/>
<line x1="763.78" y1="326.95" x2="852.45" y2="286.81" stroke="#3b4b5d" stroke-opacity="0.18" stroke-width="1"/>
<line x1="763.78" y1="326.95" x2="839.33" y2="239.45" stroke="#3b4b5d" stroke-opacity="0.18" stroke-width="1"/>
<line x1="763.78" y1="326.95" x2="888.55" y2="255.60" stroke="#3b4b5d" stroke-opacity="0.18" stroke-width="1"/>
<line x1="726.06" y1="334.39" x2="852.45" y2="286.81" stroke="#3b4b5d" stroke-opacity="0.18" stroke-width="1"/>
<line x1="726.06" y1="334.39" x2="839.33" y2="239.45" stroke="#3b4b5d" stroke-opacity="0.18" stroke-width="1"/>
<line x1="726.06" y1="334.39" x2="888.55" y2="255.60" stroke="#3b4b5d" stroke-opacity="0.18" stroke-width="1"/>
<line x1="1034.34" y1="802.30" x2="1027.30" y2="801.94" stroke="#3b4b5d" stroke-opacity="0.18" stroke-width="1"/>
<line x1="1034.34" y1="802.30" x2="1058.59" y2="774.95" stroke="#3b4b5d" stroke-opacity="0.18" stroke-width="1"/>
<line x1="1034.34" y1="802.30" x2="1050.85" y2="758.34" stroke="#3b4b5d" stroke-opacity="0.18" stroke-width="1"/>
<line x1="1034.34" y1="802.30" x2="1058.67" y2="809.45" stroke="#3b4b5d" stroke-opacity="0.18" stroke-width="1"/>
<line x1="1034.34" y1="802.30" x2="1050.20" y2="850.00" stroke="#3b4b5d" stroke-opacity="0.18" stroke-width="1"/>
<line x1="503.16" y1="341.58" x2="467.02" y2="325.46" stroke="#3b4b5d" stroke-opacity="0.18" stroke-width="1"/>
<line x1="503.16" y1="341.58" x2="541.25" y2="343.29" stroke="#3b4b5d" stroke-opacity="0.18" stroke-width="1"/>
<line x1="503.16" y1="341.58" x2="574.61" y2="364.94" stroke="#3b4b5d" stroke-opacity="0.18" stroke-width="1"/>
<line x1="503.16" y1="341.58" x2="330.82" y2="406.12" stroke="#3b4b5d" stroke-opacity="0.18" stroke-width="1"/>
<line x1="503.16" y1="341.58" x2="452.89" y2="436.98" stroke="#3b4b5d" stroke-opacity="0.18" stroke-width="1"/>
<line x1="1137.55" y1="90.14" x2="1109.46" y2="63.84" stroke="#3b4b5d" stroke-opacity="0.18" stroke-width="1"/>
<line x1="1137.55" y1="90.14" x2="1059.58" y2="94.06" stroke="#3b4b5d" stroke-opacity="0.18" stroke-width="1"/>
<line x1="1137.55" y1="90.14" x2="1041.90" y2="134.21" stroke="#3b4b5d" stroke-opacity="0.18" stroke-width="1"/>
<line x1="1137.55" y1="90.14" x2="1009.34" y2="94.95" stroke="#3b4b5d" stroke-opacity="0.18" stroke-width="1"/>
<line x1="1137.55" y1="90.14" x2="1055.90" y2="50.00" stroke="#3b4b5d" stroke-opacity="0.18" stroke-width="1"/>
<line x1="1050.85" y1="758.34" x2="1058.59" y2="774.95" stroke="#3b4b5d" stroke-opacity="0.18" stroke-width="1"/>
<line x1="1050.85" y1="758.34" x2="961.29" y2="722.68" stroke="#3b4b5d" stroke-opacity="0.18" stroke-width="1"/>
<line x1="1050.85" y1="758.34" x2="949.23" y2="776.66" stroke="#3b4b5d" stroke-opacity="0.18" stroke-width="1"/>
<line x1="1050.85" y1="758.34" x2="1050.20" y2="850.00" stroke="#3b4b5d" stroke-opacity="0.18" stroke-width="1"/>
<line x1="1050.85" y1="758.34" x2="1058.67" y2="809.45" stroke="#3b4b5d" stroke-opacity="0.18" stroke-width="1"/>
<line x1="452.89" y1="436.98" x2="397.18" y2="391.89" stroke="#3b4b5d" stroke-opacity="0.18" stroke-width="1"/>
<line x1="452.89" y1="436.98" x2="330.82" y2="406.12" stroke="#3b4b5d" stroke-opacity="0.18" stroke-width="1"/>
<line x1="452.89" y1="436.98" x2="284.53" y2="491.90" stroke="#3b4b5d" stroke-opacity="0.18" stroke-width="1"/>
<line x1="452.89" y1="436.98" x2="285.54" y2="433.27" stroke="#3b4b5d" stroke-opacity="0.18" stroke-width="1"/>
<line x1="1018.26" y1="120.88" x2="981.80" y2="135.00" stroke="#3b4b5d" stroke-opacity="0.18" stroke-width="1"/>
<line x1="1018.26" y1="120.88" x2="1041.90" y2="134.21" stroke="#3b4b5d" stroke-opacity="0.18" stroke-width="1"/>
<line x1="1018.26" y1="120.88" x2="1059.58" y2="94.06" stroke="#3b4b5d" stroke-opacity="0.18" stroke-width="1"/>
<line x1="1018.26" y1="120.88" x2="949.49" y2="170.28" stroke="#3b4b5d" stroke-opacity="0.18" stroke-width="1"/>
<line x1="1018.26" y1="120.88" x2="939.30" y2="180.79" stroke="#3b4b5d" stroke-opacity="0.18" stroke-width="1"/>
<line x1="888.55" y1="255.60" x2="839.33" y2="239.45" stroke="#3b4b5d" stroke-opacity="0.18" stroke-width="1"/>
<line x1="888.55" y1="255.60" x2="939.30" y2="180.79" stroke="#3b4b5d" stroke-opacity="0.18" stroke-width="1"/>
<line x1="888.55" y1="255.60" x2="949.49" y2="170.28" stroke="#3b4b5d" stroke-opacity="0.18" stroke-width="1"/>
<line x1="888.55" y1="255.60" x2="852.45" y2="286.81" stroke="#3b4b5d" stroke-opacity="0.18" stroke-width="1"/>
<line x1="949.49" y1="170.28" x2="939.30" y2="180.79" stroke="#3b4b5d" stroke-opacity="0.18" stroke-width="1"/>
<line x1="949.49" y1="170.28" x2="981.80" y2="135.00" stroke="#3b4b5d" stroke-opacity="0.18" stroke-width="1"/>
<line x1="949.49" y1="170.28" x2="1059.58" y2="94.06" stroke="#3b4b5d" stroke-opacity="0.18" stroke-width="1"/>
<line x1="949.49" y1="170.28" x2="1041.90" y2="134.21" stroke="#3b4b5d" stroke-opacity="0.18" stroke-width="1"/>
<line x1="961.29" y1="722.68" x2="949.23" y2="776.66" stroke="#3b4b5d" stroke-opacity="0.18" stroke-width="1"/>
<line x1="961.29" y1="722.68" x2="1058.59" y2="774.95" stroke="#3b4b5d" stroke-opacity="0.18" stroke-width="1"/>
<line x1="961.29" y1="722.68" x2="1050.20" y2="850.00" stroke="#3b4b5d" stroke-opacity="0.18" stroke-width="1"/>
<line x1="961.29" y1="722.68" x2="1058.67" y2="809.45" stroke="#3b4b5d" stroke-opacity="0.18" stroke-width="1"/>
<line x1="1055.90" y1="50.00" x2="1009.34" y2="94.95" stroke="#3b4b5d" stroke-opacity="0.18" stroke-width="1"/>
<line x1="1055.90" y1="50.00" x2="1041.90" y2="134.21" stroke="#3b4b5d" stroke-opacity="0.18" stroke-width="1"/>
<line x1="1055.90" y1="50.00" x2="1059.58" y2="94.06" stroke="#3b4b5d" stroke-opacity="0.18" stroke-width="1"/>
<line x1="1055.90" y1="50.00" x2="981.80" y2="135.00" stroke="#3b4b5d" stroke-opacity="0.18" stroke-width="1"/>
<line x1="541.25" y1="343.29" x2="574.61" y2="364.94" stroke="#3b4b5d" stroke-opacity="0.18" stroke-width="1"/>
<line x1="541.25" y1="343.29" x2="467.02" y2="325.46" stroke="#3b4b5d" stroke-opacity="0.18" stroke-width="1"/>
<line x1="541.25" y1="343.29" x2="397.18" y2="391.89" stroke="#3b4b5d" stroke-opacity="0.18" stroke-width="1"/>
<line x1="1058.67" y1="809.45" x2="1050.20" y2="850.00" stroke="#3b4b5d" stroke-opacity="0.18" stroke-width="1"/>
<line x1="1058.67" y1="809.45" x2="1058.59" y2="774.95" stroke="#3b4b5d" stroke-opacity="0.18" stroke-width="1"/>
<line x1="1058.67" y1="809.45" x2="1027.30" y2="801.94" stroke="#3b4b5d" stroke-opacity="0.18" stroke-width="1"/>
<line x1="899.45" y1="751.67" x2="877.95" y2="766.65" stroke="#3b4b5d" stroke-opacity="0.18" stroke-width="1"/>
<line x1="899.45" y1="751.67" x2="949.23" y2="776.66" stroke="#3b4b5d" stroke-opacity="0.18" stroke-width="1"/>
<line x1="899.45" y1="751.67" x2="1114.10" y2="772.83" stroke="#3b4b5d" stroke-opacity="0.18" stroke-width="1"/>
<line x1="899.45" y1="751.67" x2="1140.00" y2="769.16" stroke="#3b4b5d" stroke-opacity="0.18" stroke-width="1"/>
<line x1="1059.58" y1="94.06" x2="1041.90" y2="134.21" stroke="#3b4b5d" stroke-opacity="0.18" stroke-width="1"/>
<line x1="1059.58" y1="94.06" x2="981.80" y2="135.00" stroke="#3b4b5d" stroke-opacity="0.18" stroke-width="1"/>
<line x1="1059.58" y1="94.06" x2="939.30" y2="180.79" stroke="#3b4b5d" stroke-opacity="0.18" stroke-width="1"/>
<line x1="981.32" y1="839.32" x2="975.14" y2="848.34" stroke="#3b4b5d" stroke-opacity="0.18" stroke-width="1"/>
<line x1="981.32" y1="839.32" x2="1027.30" y2="801.94" stroke="#3b4b5d" stroke-opacity="0.18" stroke-width="1"/>
<line x1="981.32" y1="839.32" x2="1058.59" y2="774.95" stroke="#3b4b5d" stroke-opacity="0.18" stroke-width="1"/>
<line x1="1114.10" y1="772.83" x2="1140.00" y2="769.16" stroke="#3b4b5d" stroke-opacity="0.18" stroke-width="1"/>
<line x1="1114.10" y1="772.83" x2="1058.59" y2="774.95" stroke="#3b4b5d" stroke-opacity="0.18" stroke-width="1"/>
<line x1="1114.10" y1="772.83" x2="1009.34" y2="94.95" stroke="#3b4b5d" stroke-opacity="0.18" stroke-width="1"/>
<line x1="1027.30" y1="801.94" x2="1058.59" y2="774.95" stroke="#3b4b5d" stroke-opacity="0.18" stroke-width="1"/>
<line x1="1027.30" y1="801.94" x2="1050.20" y2="850.00" stroke="#3b4b5d" stroke-opacity="0.18" stroke-width="1"/>
<line x1="348.11" y1="388.23" x2="397.76" y2="331.95" stroke="#3b4b5d" stroke-opacity="0.18" stroke-width="1"/>
<line x1="348.11" y1="388.23" x2="273.17" y2="372.87" stroke="#3b4b5d" stroke-opacity="0.18" stroke-width="1"/>
<line x1="348.11" y1="388.23" x2="222.47" y2="421.53" stroke="#3b4b5d" stroke-opacity="0.18" stroke-width="1"/>
<line x1="348.11" y1="388.23" x2="285.54" y2="433.27" stroke="#3b4b5d" stroke-opacity="0.18" stroke-width="1"/>
<line x1="348.11" y1="388.23" x2="284.53" y2="491.90" stroke="#3b4b5d" stroke-opacity="0.18" stroke-width="1"/>
<line x1="133.60" y1="566.16" x2="284.53" y2="491.90" stroke="#3b4b5d" stroke-opacity="0.18" stroke-width="1"/>
<line x1="133.60" y1="566.16" x2="81.12" y2="512.71" stroke="#3b4b5d" stroke-opacity="0.18" stroke-width="1"/>
<line x1="133.60" y1="566.16" x2="50.00" y2="564.40" stroke="#3b4b5d" stroke-opacity="0.18" stroke-width="1"/>
<line x1="133.60" y1="566.16" x2="148.06" y2="547.34" stroke="#3b4b5d" stroke-opacity="0.18" stroke-width="1"/>
<line x1="133.60" y1="566.16" x2="159.70" y2="480.22" stroke="#3b4b5d" stroke-opacity="0.18" stroke-width="1"/>
<line x1="273.17" y1="372.87" x2="222.47" y2="421.53" stroke="#3b4b5d" stroke-opacity="0.18" stroke-width="1"/>
<line x1="273.17" y1="372.87" x2="284.53" y2="491.90" stroke="#3b4b5d" stroke-opacity="0.18" stroke-width="1"/>
<line x1="273.17" y1="372.87" x2="285.54" y2="433.27" stroke="#3b4b5d" stroke-opacity="0.18" stroke-width="1"/>
<line x1="273.17" y1="372.87" x2="330.82" y2="406.12" stroke="#3b4b5d" stroke-opacity="0.18" stroke-width="1"/>
<line x1="1057.70" y1="80.21" x2="1016.67" y2="51.41" stroke="#3b4b5d" stroke-opacity="0.18" stroke-width="1"/>
<line x1="1057.70" y1="80.21" x2="981.80" y2="135.00" stroke="#3b4b5d" stroke-opacity="0.18" stroke-width="1"/>
<line x1="1057.70" y1="80.21" x2="1050.20" y2="850.00" stroke="#3b4b5d" stroke-opacity="0.18" stroke-width="1"/>
<line x1="736.15" y1="479.17" x2="727.83" y2="442.07" stroke="#3b4b5d" stroke-opacity="0.18" stroke-width="1"/>
<line x1="736.15" y1="479.17" x2="758.32" y2="497.06" stroke="#3b4b5d" stroke-opacity="0.18" stroke-width="1"/>
<line x1="736.15" y1="479.17" x2="736.77" y2="509.66" stroke="#3b4b5d" stroke-opacity="0.18" stroke-width="1"/>
<line x1="736.15" y1="479.17" x2="687.65" y2="490.64" stroke="#3b4b5d" stroke-opacity="0.18" stroke-width="1"/>
<line x1="736.15" y1="479.17" x2="691.45" y2="570.99" stroke="#3b4b5d" stroke-opacity="0.18" stroke-width="1"/>
<line x1="467.02" y1="325.46" x2="574.61" y2="364.94" stroke="#3b4b5d" stroke-opacity="0.18" stroke-width="1"/>
<line x1="467.02" y1="325.46" x2="330.82" y2="406.12" stroke="#3b4b5d" stroke-opacity="0.18" stroke-width="1"/>
<line x1="1109.46" y1="63.84" x2="1041.90" y2="134.21" stroke="#3b4b5d" stroke-opacity="0.18" stroke-width="1"/>
<line x1="1109.46" y1="63.84" x2="1009.34" y2="94.95" stroke="#3b4b5d" stroke-opacity="0.18" stroke-width="1"/>
<line x1="560.55" y1="402.81" x2="471.49" y2="448.64" stroke="#3b4b5d" stroke-opacity="0.18" stroke-width="1"/>
<line x1="560.55" y1="402.81" x2="397.18" y2="391.89" stroke="#3b4b5d" stroke-opacity="0.18" stroke-width="1"/>
<line x1="560.55" y1="402.81" x2="330.82" y2="406.12" stroke="#3b4b5d" stroke-opacity="0.18" stroke-width="1"/>
<line x1="1058.59" y1="774.95" x2="949.23" y2="776.66" stroke="#3b4b5d" stroke-opacity="0.18" stroke-width="1"/>
<line x1="1058.59" y1="774.95" x2="1050.20" y2="850.00" stroke="#3b4b5d" stroke-opacity="0.18" stroke-width="1"/>
<line x1="397.76" y1="331.95" x2="1016.67" y2="51.41" stroke="#3b4b5d" stroke-opacity="0.18" stroke-width="1"/>
<line x1="397.76" y1="331.95" x2="330.82" y2="406.12" stroke="#3b4b5d" stroke-opacity="0.18" stroke-width="1"/>
<line x1="397.76" y1="331.95" x2="1009.34" y2="94.95" stroke="#3b4b5d" stroke-opacity="0.18" stroke-width="1"/>
<line x1="285.54" y1="433.27" x2="330.82" y2="406.12" stroke="#3b4b5d" stroke-opacity="0.18" stroke-width="1"/>
<line x1="285.54" y1="433.27" x2="222.47" y2="421.53" stroke="#3b4b5d" stroke-opacity="0.18" stroke-width="1"/>
<line x1="285.54" y1="433.27" x2="284.53" y2="491.90" stroke="#3b4b5d" stroke-opacity="0.18" stroke-width="1"/>
<line x1="285.54" y1="433.27" x2="249.53" y2="508.24" stroke="#3b4b5d" stroke-opacity="0.18" stroke-width="1"/>
<line x1="397.18" y1="391.89" x2="330.82" y2="406.12" stroke="#3b4b5d" stroke-opacity="0.18" stroke-width="1"/>
<line x1="397.18" y1="391.89" x2="284.53" y2="491.90" stroke="#3b4b5d" stroke-opacity="0.18" stroke-width="1"/>
<line x1="981.80" y1="135.00" x2="1041.90" y2="134.21" stroke="#3b4b5d" stroke-opacity="0.18" stroke-width="1"/>
<line x1="981.80" y1="135.00" x2="939.30" y2="180.79" stroke="#3b4b5d" stroke-opacity="0.18" stroke-width="1"/>
<line x1="330.82" y1="406.12" x2="284.53" y2="491.90" stroke="#3b4b5d" stroke-opacity="0.18" stroke-width="1"/>
<line x1="330.82" y1="406.12" x2="222.47" y2="421.53" stroke="#3b4b5d" stroke-opacity="0.18" stroke-width="1"/>
<line x1="839.33" y1="239.45" x2="939.30" y2="180.79" stroke="#3b4b5d" stroke-opacity="0.18" stroke-width="1"/>
<line x1="839.33" y1="239.45" x2="852.45" y2="286.81" stroke="#3b4b5d" stroke-opacity="0.18" stroke-width="1"/>
<line x1="939.30" y1="180.79" x2="1041.90" y2="134.21" stroke="#3b4b5d" stroke-opacity="0.18" stroke-width="1"/>
<line x1="949.23" y1="776.66" x2="1050.20" y2="850.00" stroke="#3b4b5d" stroke-opacity="0.18" stroke-width="1"/>
<line x1="1009.34" y1="94.95" x2="1041.90" y2="134.21" stroke="#3b4b5d" stroke-opacity="0.18" stroke-width="1"/>
<line x1="222.47" y1="421.53" x2="249.53" y2="508.24" stroke="#3b4b5d" stroke-opacity="0.18" stroke-width="1"/>
<line x1="222.47" y1="421.53" x2="284.53" y2="491.90" stroke="#3b4b5d" stroke-opacity="0.18" stroke-width="1"/>
<line x1="222.47" y1="421.53" x2="159.70" y2="480.22" stroke="#3b4b5d" stroke-opacity="0.18" stroke-width="1"/>
<line x1="471.49" y1="448.64" x2="249.53" y2="508.24" stroke="#3b4b5d" stroke-opacity="0.18" stroke-width="1"/>
<line x1="877.95" y1="766.65" x2="1140.00" y2="769.16" stroke="#3b4b5d" stroke-opacity="0.18" stroke-width="1"/>
<line x1="314.37" y1="462.36" x2="334.93" y2="486.71" stroke="#3b4b5d" stroke-opacity="0.18" stroke-width="1"/>
<line x1="314.37" y1="462.36" x2="284.53" y2="491.90" stroke="#3b4b5d" stroke-opacity="0.18" stroke-width="1"/>
<line x1="249.53" y1="508.24" x2="325.89" y2="507.32" stroke="#3b4b5d" stroke-opacity="0.18" stroke-width="1"/>
<line x1="249.53" y1="508.24" x2="334.93" y2="486.71" stroke="#3b4b5d" stroke-opacity="0.18" stroke-width="1"/>
<line x1="299.38" y1="450.42" x2="334.93" y2="486.71" stroke="#3b4b5d" stroke-opacity="0.18" stroke-width="1"/>
<line x1="299.38" y1="450.42" x2="323.74" y2="499.02" stroke="#3b4b5d" stroke-opacity="0.18" stroke-width="1"/>
<line x1="334.93" y1="486.71" x2="325.89" y2="507.32" stroke="#3b4b5d" stroke-opacity="0.18" stroke-width="1"/>
<line x1="334.93" y1="486.71" x2="323.74" y2="499.02" stroke="#3b4b5d" stroke-opacity="0.18" stroke-width="1"/>
<line x1="323.74" y1="499.02" x2="325.89" y2="507.32" stroke="#3b4b5d" stroke-opacity="0.18" stroke-width="1"/>
<line x1="115.33" y1="505.73" x2="103.50" y2="487.04" stroke="#3b4b5d" stroke-opacity="0.18" stroke-width="1"/>
<line x1="115.33" y1="505.73" x2="159.70" y2="480.22" stroke="#3b4b5d" stroke-opacity="0.18" stroke-width="1"/>
<line x1="115.33" y1="505.73" x2="143.35" y2="492.41" stroke="#3b4b5d" stroke-opacity="0.18" stroke-width="1"/>
<line x1="115.33" y1="505.73" x2="284.53" y2="491.90" stroke="#3b4b5d" stroke-opacity="0.18" stroke-width="1"/>
<line x1="115.33" y1="505.73" x2="50.00" y2="564.40" stroke="#3b4b5d" stroke-opacity="0.18" stroke-width="1"/>
<line x1="143.35" y1="492.41" x2="103.50" y2="487.04" stroke="#3b4b5d" stroke-opacity="0.18" stroke-width="1"/>
<line x1="143.35" y1="492.41" x2="159.70" y2="480.22" stroke="#3b4b5d" stroke-opacity="0.18" stroke-width="1"/>
<line x1="103.50" y1="487.04" x2="159.70" y2="480.22" stroke="#3b4b5d" stroke-opacity="0.18" stroke-width="1"/>
<line x1="103.50" y1="487.04" x2="284.53" y2="491.90" stroke="#3b4b5d" stroke-opacity="0.18" stroke-width="1"/>
<line x1="136.69" y1="496.74" x2="88.44" y2="489.10" stroke="#3b4b5d" stroke-opacity="0.18" stroke-width="1"/>
<line x1="136.69" y1="496.74" x2="81.12" y2="512.71" stroke="#3b4b5d" stroke-opacity="0.18" stroke-width="1"/>
<line x1="136.69" y1="496.74" x2="148.06" y2="547.34" stroke="#3b4b5d" stroke-opacity="0.18" stroke-width="1"/>
<line x1="136.69" y1="496.74" x2="166.41" y2="533.00" stroke="#3b4b5d" stroke-opacity="0.18" stroke-width="1"/>
<line x1="136.69" y1="496.74" x2="68.65" y2="561.32" stroke="#3b4b5d" stroke-opacity="0.18" stroke-width="1"/>
<line x1="68.65" y1="561.32" x2="86.63" y2="547.89" stroke="#3b4b5d" stroke-opacity="0.18" stroke-width="1"/>
<line x1="68.65" y1="561.32" x2="148.06" y2="547.34" stroke="#3b4b5d" stroke-opacity="0.18" stroke-width="1"/>
<line x1="68.65" y1="561.32" x2="50.00" y2="564.40" stroke="#3b4b5d" stroke-opacity="0.18" stroke-width="1"/>
<line x1="68.65" y1="561.32" x2="88.44" y2="489.10" stroke="#3b4b5d" stroke-opacity="0.18" stroke-width="1"/>
<line x1="68.65" y1="561.32" x2="166.41" y2="533.00" stroke="#3b4b5d" stroke-opacity="0.18" stroke-width="1"/>
<line x1="86.63" y1="547.89" x2="148.06" y2="547.34" stroke="#3b4b5d" stroke-opacity="0.18" stroke-width="1"/>
<line x1="86.63" y1="547.89" x2="88.44" y2="489.10" stroke="#3b4b5d" stroke-opacity="0.18" stroke-width="1"/>
<line x1="86.63" y1="547.89" x2="81.12" y2="512.71" stroke="#3b4b5d" stroke-opacity="0.18" stroke-width="1"/>
<line x1="86.63" y1="547.89" x2="50.00" y2="564.40" stroke="#3b4b5d" stroke-opacity="0.18" stroke-width="1"/>
<line x1="88.44" y1="489.10" x2="148.06" y2="547.34" stroke="#3b4b5d" stroke-opacity="0.18" stroke-width="1"/>
<line x1="88.44" y1="489.10" x2="81.12" y2="512.71" stroke="#3b4b5d" stroke-opacity="0.18" stroke-width="1"/>
<line x1="88.44" y1="489.10" x2="166.41" y2="533.00" stroke="#3b4b5d" stroke-opacity="0.18" stroke-width="1"/>
<line x1="166.41" y1="533.00" x2="148.06" y2="547.34" stroke="#3b4b5d" stroke-opacity="0.18" stroke-width="1"/>
<line x1="166.41" y1="533.00" x2="81.12" y2="512.71" stroke="#3b4b5d" stroke-opacity="0.18" stroke-width="1"/>
<line x1="148.06" y1="547.34" x2="81.12" y2="512.71" stroke="#3b4b5d" stroke-opacity="0.18" stroke-width="1"/>
<line x1="50.00" y1="564.40" x2="81.12" y2="512.71" stroke="#3b4b5d" stroke-opacity="0.18" stroke-width="1"/>
<line x1="50.00" y1="564.40" x2="159.70" y2="480.22" stroke="#3b4b5d" stroke-opacity="0.18" stroke-width="1"/>
<line x1="159.70" y1="480.22" x2="655.43" y2="545.28" stroke="#3b4b5d" stroke-opacity="0.18" stroke-width="1"/>
<line x1="317.29" y1="549.40" x2="414.62" y2="539.74" stroke="#3b4b5d" stroke-opacity="0.18" stroke-width="1"/>
<line x1="778.26" y1="459.86" x2="758.32" y2="497.06" stroke="#3b4b5d" stroke-opacity="0.18" stroke-width="1"/>
<line x1="778.26" y1="459.86" x2="687.65" y2="490.64" stroke="#3b4b5d" stroke-opacity="0.18" stroke-width="1"/>
<line x1="778.26" y1="459.86" x2="736.77" y2="509.66" stroke="#3b4b5d" stroke-opacity="0.18" stroke-width="1"/>
<line x1="778.26" y1="459.86" x2="727.83" y2="442.07" stroke="#3b4b5d" stroke-opacity="0.18" stroke-width="1"/>
<line x1="691.45" y1="570.99" x2="655.43" y2="545.28" stroke="#3b4b5d" stroke-opacity="0.18" stroke-width="1"/>
<line x1="691.45" y1="570.99" x2="736.77" y2="509.66" stroke="#3b4b5d" stroke-opacity="0.18" stroke-width="1"/>
<line x1="691.45" y1="570.99" x2="687.65" y2="490.64" stroke="#3b4b5d" stroke-opacity="0.18" stroke-width="1"/>
<line x1="691.45" y1="570.99" x2="758.32" y2="497.06" stroke="#3b4b5d" stroke-opacity="0.18" stroke-width="1"/>
<line x1="758.32" y1="497.06" x2="736.77" y2="509.66" stroke="#3b4b5d" stroke-opacity="0.18" stroke-width="1"/>
<line x1="758.32" y1="497.06" x2="687.65" y2="490.64" stroke="#3b4b5d" stroke-opacity="0.18" stroke-width="1"/>
<line x1="736.77" y1="509.66" x2="687.65" y2="490.64" stroke="#3b4b5d" stroke-opacity="0.18" stroke-width="1"/>
<line x1="736.77" y1="509.66" x2="655.43" y2="545.28" stroke="#3b4b5d" stroke-opacity="0.18" stroke-width="1"/>
<line x1="687.65" y1="490.64" x2="655.43" y2="545.28" stroke="#3b4b5d" stroke-opacity="0.18" stroke-width="1"/>
<circle cx="672.43" cy="360.15" r="5" fill="#0984e3"/>
<circle cx="763.78" cy="326.95" r="5" fill="#0984e3"/>
<circle cx="726.06" cy="334.39" r="5" fill="#0984e3"/>
<circle cx="1034.34" cy="802.30" r="5" fill="#00cec9"/>
<circle cx="503.16" cy="341.58" r="5" fill="#0984e3"/>
<circle cx="1137.55" cy="90.14" r="5" fill="#0984e3"/>
<circle cx="1050.85" cy="758.34" r="5" fill="#00cec9"/>
<circle cx="452.89" cy="436.98" r="5" fill="#0984e3"/>
<circle cx="1018.26" cy="120.88" r="5" fill="#0984e3"/>
<circle cx="888.55" cy="255.60" r="5" fill="#0984e3"/>
<circle cx="949.49" cy="170.28" r="5" fill="#0984e3"/>
<circle cx="961.29" cy="722.68" r="5" fill="#00cec9"/>
<circle cx="1055.90" cy="50.00" r="5" fill="#0984e3"/>
<circle cx="541.25" cy="343.29" r="5" fill="#0984e3"/>
<circle cx="1058.67" cy="809.45" r="5" fill="#00cec9"/>
<circle cx="899.45" cy="751.67" r="5" fill="#6c5ce7"/>
<circle cx="1059.58" cy="94.06" r="5" fill="#0984e3"/>
<circle cx="981.32" cy="839.32" r="5" fill="#00cec9"/>
<circle cx="1114.10" cy="772.83" r="5" fill="#6c5ce7"/>
<circle cx="1027.30" cy="801.94" r="5" fill="#00cec9"/>
<circle cx="348.11" cy="388.23" r="5" fill="#0984e3"/>
<circle cx="133.60" cy="566.16" r="5" fill="#a0a0a0"/>
<circle cx="273.17" cy="372.87" r="5" fill="#ff9ff3"/>
<circle cx="1057.70" cy="80.21" r="5" fill="#48dbfb"/>
<circle cx="736.15" cy="479.17" r="5" fill="#ff6b6b"/>
<circle cx="467.02" cy="325.46" r="5" fill="#0984e3"/>
<circle cx="1109.46" cy="63.84" r="5" fill="#0984e3"/>
<circle cx="560.55" cy="402.81" r="5" fill="#0984e3"/>
<circle cx="1058.59" cy="774.95" r="5" fill="#00cec9"/>
<circle cx="397.76" cy="331.95" r="5" fill="#0984e3"/>
<circle cx="285.54" cy="433.27" r="5" fill="#0984e3"/>
<circle cx="397.18" cy="391.89" r="5" fill="#0984e3"/>
<circle cx="981.80" cy="135.00" r="5" fill="#0984e3"/>
<circle cx="330.82" cy="406.12" r="5" fill="#0984e3"/>
<circle cx="839.33" cy="239.45" r="5" fill="#0984e3"/>
<circle cx="939.30" cy="180.79" r="5" fill="#0984e3"/>
<circle cx="949.23" cy="776.66" r="5" fill="#00cec9"/>
<circle cx="1009.34" cy="94.95" r="5" fill="#0984e3"/>
<circle cx="574.61" cy="364.94" r="5" fill="#0984e3"/>
<circle cx="222.47" cy="421.53" r="5" fill="#ff9ff3"/>
<circle cx="471.49" cy="448.64" r="5" fill="#0984e3"/>
<circle cx="1050.20" cy="850.00" r="5" fill="#00cec9"/>
<circle cx="877.95" cy="766.65" r="5" fill="#6c5ce7"/>
<circle cx="1041.90" cy="134.21" r="5" fill="#0984e3"/>
<circle cx="314.37" cy="462.36" r="5" fill="#0984e3"/>
<circle cx="975.14" cy="848.34" r="5" fill="#00cec9"/>
<circle cx="1140.00" cy="769.16" r="5" fill="#6c5ce7"/>
<circle cx="1016.67" cy="51.41" r="5" fill="#48dbfb"/>
<circle cx="249.53" cy="508.24" r="5" fill="#a29bfe"/>
<circle cx="299.38" cy="450.42" r="5" fill="#a29bfe"/>
<circle cx="334.93" cy="486.71" r="5" fill="#a29bfe"/>
<circle cx="323.74" cy="499.02" r="5" fill="#a29bfe"/>
<circle cx="325.89" cy="507.32" r="5" fill="#a29bfe"/>
<circle cx="115.33" cy="505.73" r="5" fill="#fd79a8"/>
<circle cx="143.35" cy="492.41" r="5" fill="#fd79a8"/>
<circle cx="103.50" cy="487.04" r="5" fill="#fd79a8"/>
<circle cx="136.69" cy="496.74" r="5" fill="#00b894"/>
<circle cx="68.65" cy="561.32" r="5" fill="#00b894"/>
<circle cx="86.63" cy="547.89" r="5" fill="#00b894"/>
<circle cx="284.53" cy="491.90" r="5" fill="#00b894"/>
<circle cx="88.44" cy="489.10" r="5" fill="#00b894"/>
<circle cx="166.41" cy="533.00" r="5" fill="#00b894"/>
<circle cx="148.06" cy="547.34" r="5" fill="#00b894"/>
<circle cx="50.00" cy="564.40" r="5" fill="#e17055"/>
<circle cx="159.70" cy="480.22" r="5" fill="#e17055"/>
<circle cx="81.12" cy="512.71" r="5" fill="#00b894"/>
<circle cx="317.29" cy="549.40" r="5" fill="#feca57"/>
<circle cx="414.62" cy="539.74" r="5" fill="#feca57"/>
<circle cx="778.26" cy="459.86" r="5" fill="#ff6b6b"/>
<circle cx="691.45" cy="570.99" r="5" fill="#ff6b6b"/>
<circle cx="758.32" cy="497.06" r="5" fill="#ff6b6b"/>
<circle cx="736.77" cy="509.66" r="5" fill="#ff6b6b"/>
<circle cx="687.65" cy="490.64" r="5" fill="#ff6b6b"/>
<circle cx="727.83" cy="442.07" r="5" fill="#ff6b6b"/>
<circle cx="655.43" cy="545.28" r="5" fill="#ff6b6b"/>
<circle cx="852.45" cy="286.81" r="5" fill="#2d3436"/>
</svg>